<?xml version="1.0" encoding="UTF-8" standalone="no"?>
<svg
   xmlns:osb="http://www.openswatchbook.org/uri/2009/osb"
   xmlns:dc="http://purl.org/dc/elements/1.1/"
   xmlns:cc="http://creativecommons.org/ns#"
   xmlns:rdf="http://www.w3.org/1999/02/22-rdf-syntax-ns#"
   xmlns:svg="http://www.w3.org/2000/svg"
   xmlns="http://www.w3.org/2000/svg"
   xmlns:sodipodi="http://sodipodi.sourceforge.net/DTD/sodipodi-0.dtd"
   xmlns:inkscape="http://www.inkscape.org/namespaces/inkscape"
   width="210mm"
   height="297mm"
   viewBox="0 0 210 297"
   version="1.1"
   id="svg8"
   sodipodi:docname="huginn.svg"
   inkscape:version="1.0.1 (3bc2e813f5, 2020-09-07)">
  <defs
     id="defs2">
    <linearGradient
       id="linearGradient6965"
       osb:paint="solid">
      <stop
         style="stop-color:#ff0000;stop-opacity:1;"
         offset="0"
         id="stop6963" />
    </linearGradient>
  </defs>
  <sodipodi:namedview
     id="base"
     pagecolor="#ffffff"
     bordercolor="#666666"
     borderopacity="1.0"
     inkscape:pageopacity="0.0"
     inkscape:pageshadow="2"
     inkscape:zoom="1"
     inkscape:cx="448.33655"
     inkscape:cy="574.33607"
     inkscape:document-units="mm"
     inkscape:current-layer="layer1"
     showgrid="false"
     inkscape:snap-nodes="false"
     inkscape:window-width="2560"
     inkscape:window-height="1411"
     inkscape:window-x="0"
     inkscape:window-y="0"
     inkscape:window-maximized="1"
     inkscape:document-rotation="0">
    <inkscape:grid
       type="xygrid"
       id="grid1020" />
  </sodipodi:namedview>
  <metadata
     id="metadata5">
    <rdf:RDF>
      <cc:Work
         rdf:about="">
        <dc:format>image/svg+xml</dc:format>
        <dc:type
           rdf:resource="http://purl.org/dc/dcmitype/StillImage" />
        <dc:title />
      </cc:Work>
    </rdf:RDF>
  </metadata>
  <g
     inkscape:label="Layer 1"
     inkscape:groupmode="layer"
     id="layer1">
    <path
       id="path971-9"
       style="fill:#79b1f1;stroke:#000000;stroke-width:4.23333333;stroke-miterlimit:4;stroke-dasharray:none;fill-opacity:1"
       d="m 143.84549,140.5179 c 13.08537,0.0137 62.18763,27.39264 61.42112,36.63628 -4.70051,13.22112 -19.35661,14.9469 -77.65671,82.6199 -2.8167,-7.15653 -6.76099,-14.21689 -7.24237,-17.90206 50.95049,-39.04456 17.80365,-53.84113 61.58518,-62.60739 -8.70597,2.12327 -30.36785,6.71689 -55.57936,2.5742 C 98.175153,225.0815 51.033151,258.57016 7.6042581,295.23281 5.955272,287.85899 6.5549084,289.55635 4.724517,282.27294 52.309587,238.80276 125.32905,137.84676 89.940544,71.814798 c 6.541481,-0.519737 18.298796,-2.603146 24.624906,-5.150136 13.99303,-7.401023 2.84416,-30.452365 -19.688788,-27.824005 4.334884,0.557445 13.393858,-3.555014 19.435908,0.416959 l 10.86467,5.826945 c 23.53114,16.355949 21.531,25.314413 28.69974,43.436507 1.31534,13.661342 -0.29215,18.323682 -4.69877,35.337672 -1.35899,5.45629 -3.14856,11.02632 -5.33272,16.65916 z"
       sodipodi:nodetypes="cccccccccccccccc" />
    <path
       id="path963-6"
       style="fill:#a6cdfc;stroke:#000000;stroke-width:4.23333333;stroke-miterlimit:4;stroke-dasharray:none;fill-opacity:0.50097656"
       d="M 114.54071,66.668281 C 128.53374,59.267257 117.38487,36.215915 94.864272,38.84248 74.319141,51.036387 61.223688,53.376474 48.776957,54.416545 43.514913,65.03581 34.699871,84.629205 35.820313,122.29028 c -0.417454,2.91092 -3.34771,5.29347 -3.80394,8.46626 2.787725,18.42244 35.021633,10.92452 13.636168,-6.47597 3.038069,-31.646245 10.365747,-36.793661 14.014983,-53.828486 20.881902,1.680512 18.838775,2.454443 30.260654,1.364523 6.529109,-0.517928 18.286422,-2.601336 24.612532,-5.148326 z m 49.68327,-6.011727 c -12.97216,-29.885313 3.88166,-17.710743 8.06125,-37.800789 7.1891,-1.192423 -2.37114,10.998714 7.53783,20.477903 -10.57447,49.129229 -16.31744,75.015552 -28.01329,81.061772 -0.93501,-0.171 -1.81355,-0.3614 -2.6316,-0.53678 4.40659,-17.01407 6.01408,-21.67641 4.69877,-35.337669 5.5097,-1.207237 10.77698,-23.996869 10.34704,-27.864437 z M 125.17724,45.084561 c 6.77933,4.052259 12.46651,2.105958 16.56533,-1.246169 5.24777,-5.077735 8.05194,-16.950339 2.24794,-31.16655 C 138.86437,5.0700037 131.23049,1.8035151 123.8525,1.7674955 c -5.04809,-0.024651 -9.9763,1.4632423 -13.89967,4.1088741 -8.3146,6.7809164 -8.53034,15.5253294 -0.14789,28.2782064 0.96198,1.426594 3.43362,3.910797 4.50763,5.10304 z" />
  </g>
</svg>
